<?xml version="1.0" standalone="no"?><!DOCTYPE svg PUBLIC "-//W3C//DTD SVG 1.1//EN" "http://www.w3.org/Graphics/SVG/1.1/DTD/svg11.dtd"><svg t="1753511472442" class="icon" viewBox="0 0 1024 1024" version="1.1" xmlns="http://www.w3.org/2000/svg" p-id="4870" xmlns:xlink="http://www.w3.org/1999/xlink" width="48" height="48"><path d="M641.0048 380.992H548.032v-62.496h92.9728c17.12 0 30.9952-13.9904 30.9952-31.2512 0-17.2544-13.8752-31.2448-30.9952-31.2448h-123.968c-17.12 0-30.9952 13.9904-30.9952 31.2448v222.4832c-69.184 15.872-115.4944 81.6192-107.5584 152.704C386.4192 733.5232 446.08 787.2448 517.0368 787.2c77.024 0 139.4688-62.9568 139.4688-140.608-0.0768-65.5488-45.0816-122.336-108.48-136.864v-66.24h92.9792c17.12 0 30.9952-13.9968 30.9952-31.2512 0-17.2608-13.8752-31.2512-30.9952-31.2512z m-46.4896 265.6c0 43.136-34.688 78.112-77.4784 78.112S439.552 689.7344 439.552 646.592c0-43.136 34.688-78.112 77.4848-78.112 42.7904 0 77.4784 34.9696 77.4784 78.112z" p-id="4871"></path><path d="M136.704 267.9552a35.8144 35.8144 0 0 1-35.8016-34.048V146.112c1.3696-46.2848 39.6608-82.8672 85.9072-82.0608h692.608a84.0576 84.0576 0 0 1 60.5824 22.8736A84.2624 84.2624 0 0 1 966.4 146.112v731.776a84.2624 84.2624 0 0 1-26.4 59.1872 84.0576 84.0576 0 0 1-60.576 22.8736H186.816c-46.528 1.2032-85.2608-35.488-86.624-82.0608V790.08c0-19.7888 16.0256-35.84 35.7888-35.84a35.8144 35.8144 0 0 1 35.7952 35.84v87.8016a13.6064 13.6064 0 0 0 13.9584 12.896H879.424a13.2352 13.2352 0 0 0 13.952-12.896V146.112a13.2672 13.2672 0 0 0-13.952-12.896H186.816a13.6064 13.6064 0 0 0-13.9648 12.896V233.92a35.8144 35.8144 0 0 1-36.1536 34.048zM95.1808 336.768h86.1952c11.9424-1.216 23.9424 1.8688 32.416 8.352 8.4736 6.4832 12.4288 15.5968 10.688 24.6144 1.7408 9.024-2.2144 18.1376-10.688 24.6208-8.4736 6.4768-20.48 9.5744-32.416 8.352H95.1872c-11.8656 1.0944-23.7248-2.048-32.0832-8.512-8.352-6.464-12.256-15.5072-10.5408-24.4608-1.7152-8.9472 2.1888-17.984 10.5408-24.448 8.3584-6.464 20.224-9.6192 32.0832-8.5184z m0 284.544h86.1952c11.9424-1.2288 23.9424 1.8688 32.416 8.3456 8.4736 6.4832 12.4288 15.5968 10.688 24.6208 1.7408 9.0176-2.2144 18.1312-10.688 24.6144-8.4736 6.4832-20.48 9.5744-32.416 8.352H95.1872c-11.8656 1.1008-23.7248-2.048-32.0832-8.512-8.352-6.464-12.256-15.5072-10.5408-24.4544-1.7152-8.9536 2.1888-17.9968 10.5408-24.4608 8.3584-6.464 20.224-9.6064 32.0832-8.512z m0-142.272h86.1952c11.9424-1.2224 23.9424 1.8688 32.416 8.352 8.4736 6.4768 12.4288 15.5968 10.688 24.6144 1.7408 9.024-2.2144 18.1376-10.688 24.6144-8.4736 6.4832-20.48 9.5744-32.416 8.352H95.1872c-12.0128 1.344-24.16-1.6896-32.7488-8.1856S49.8304 521.088 51.616 512c-1.7792-9.088 2.2336-18.2848 10.816-24.7808 8.5952-6.496 20.736-9.536 32.7552-8.192z" p-id="4872"></path></svg>