<?xml version="1.0" standalone="no"?><!DOCTYPE svg PUBLIC "-//W3C//DTD SVG 1.1//EN" "http://www.w3.org/Graphics/SVG/1.1/DTD/svg11.dtd"><svg t="1752408013825" viewBox="0 0 1024 1024" version="1.1" xmlns="http://www.w3.org/2000/svg" p-id="12730" xmlns:xlink="http://www.w3.org/1999/xlink" width="48" height="48"><path d="M0 0h1024v1024H0z"  fill-opacity="0" p-id="12731"></path><path d="M94 845c-16.569 0-30-13.431-30-30V209c0-16.569 13.431-30 30-30h836c16.569 0 30 13.431 30 30v606c0 16.403-13.164 29.731-29.504 29.996L930 845H94z m301.857-299.747L160.11 781h703.777L628.141 545.254l-94.928 94.929c-11.716 11.716-30.71 11.716-42.426 0l-94.93-94.93zM896 277.395L673.396 499.999 896 722.604V277.395z m-768 0v445.208l222.603-222.604L128 277.395zM839.886 243H184.112L512 570.886 839.886 243z" p-id="12732"></path></svg>