<?xml version="1.0" standalone="no"?><!DOCTYPE svg PUBLIC "-//W3C//DTD SVG 1.1//EN" "http://www.w3.org/Graphics/SVG/1.1/DTD/svg11.dtd"><svg t="1750381938676" class="icon" viewBox="0 0 1024 1024" version="1.1" xmlns="http://www.w3.org/2000/svg" p-id="11573" xmlns:xlink="http://www.w3.org/1999/xlink" width="200" height="200"><path d="M409.48 935.64h-147.3c-60.73 0-110.15-49.41-110.15-110.15V198.14c0-60.73 49.41-110.15 110.15-110.15h499.83c60.73 0 110.14 49.41 110.14 110.15v208.2c0 22.09-17.91 40-40 40s-40-17.91-40-40v-208.2c0-16.62-13.52-30.15-30.14-30.15H262.18c-16.62 0-30.15 13.52-30.15 30.15V825.5c0 16.62 13.52 30.15 30.15 30.15h147.3c22.09 0 40 17.91 40 40s-17.9 39.99-40 39.99z"  p-id="11574"></path><path d="M663.33 335.95H360.06c-22.09 0-40-17.91-40-40s17.91-40 40-40h303.27c22.09 0 40 17.91 40 40s-17.91 40-40 40zM471.7 463.03h-112c-22.09 0-40-17.91-40-40s17.91-40 40-40h112c22.09 0 40 17.91 40 40s-17.91 40-40 40z"  p-id="11575"></path><path d="M674.42 607.49L538.68 799.72c-38.12 53.98 0.49 128.5 66.57 128.5h271.48c66.08 0 104.69-74.52 66.57-128.5L807.56 607.49c-32.47-45.98-100.67-45.98-133.14 0z" fill="#F3939C" p-id="11576"></path><path d="M740.99 809.98c17.65 0 31.96-14.31 31.96-31.96V671.93c0-17.65-14.31-31.96-31.96-31.96s-31.96 14.31-31.96 31.96v106.09c0 17.65 14.31 31.96 31.96 31.96zM740.99 831.72c-17.68 0-32.01 14.33-32.01 32.01s14.33 32.01 32.01 32.01S773 881.41 773 863.73s-14.33-32.01-32.01-32.01z" p-id="11577"></path></svg>