<?xml version="1.0" standalone="no"?><!DOCTYPE svg PUBLIC "-//W3C//DTD SVG 1.1//EN" "http://www.w3.org/Graphics/SVG/1.1/DTD/svg11.dtd"><svg t="1750775811031" class="icon" viewBox="0 0 1024 1024" version="1.1" xmlns="http://www.w3.org/2000/svg" p-id="6286" xmlns:xlink="http://www.w3.org/1999/xlink" width="48" height="48"><path d="M469.194651 938.803677H213.196084a40.959771 40.959771 0 0 1-40.95977-43.007759v-127.794484a213.810003 213.810003 0 0 1 213.400405-213.400405h255.998566a211.352416 211.352416 0 0 1 122.879312 40.95977 42.680081 42.680081 0 0 0 49.97092-69.222012 297.777532 297.777532 0 0 0-174.488623-56.524484H383.998328A299.006326 299.006326 0 0 0 85.4016 768.001434v128.204082A127.794484 127.794484 0 0 0 213.196084 1024h255.998567a42.598161 42.598161 0 1 0 0-85.196323z m40.95977-511.997133a213.400405 213.400405 0 1 0-212.990807-213.400405 213.400405 213.400405 0 0 0 214.629198 213.400405z m0-341.194889a128.204082 128.204082 0 1 1-127.794484 127.794484 128.204082 128.204082 0 0 1 129.432875-127.794484z" p-id="6287"></path><path d="M597.398733 789.300514a40.959771 40.959771 0 0 0 40.95977 40.959771h255.998567a42.598161 42.598161 0 0 0 0-85.196323h-254.360176a40.959771 40.959771 0 0 0-42.598161 44.236552z m298.596728 149.503163h-255.998567a42.598161 42.598161 0 0 0 0 85.196323h255.998567a42.598161 42.598161 0 0 0 0-85.196323z" p-id="6288"></path></svg>