<?xml version="1.0" standalone="no"?><!DOCTYPE svg PUBLIC "-//W3C//DTD SVG 1.1//EN" "http://www.w3.org/Graphics/SVG/1.1/DTD/svg11.dtd"><svg t="1750920924699"  viewBox="0 0 1024 1024" version="1.1" xmlns="http://www.w3.org/2000/svg" p-id="13941" xmlns:xlink="http://www.w3.org/1999/xlink" width="200" height="200"><path d="M513.7 1022c-68.6 0-135.3-13.5-198-40-60.6-25.6-115-62.3-161.7-109-46.7-46.7-83.4-101.1-109-161.7C18.5 648.6 5 582 5 513.3s13.5-135.3 40-198c25.6-60.6 62.3-115 109-161.7 46.7-46.7 101.1-83.4 161.7-109 62.7-26.5 129.3-40 198-40s135.3 13.5 198 40c60.6 25.6 115 62.3 161.7 109s83.4 101.1 109 161.7c26.5 62.7 40 129.3 40 198s-13.5 135.3-40 198c-25.6 60.6-62.3 115-109 161.7s-101.1 83.4-161.7 109c-62.8 26.6-129.4 40-198 40z m0-969.2c-254 0-460.6 206.6-460.6 460.6S259.7 974 513.7 974s460.6-206.6 460.6-460.6S767.7 52.8 513.7 52.8z" p-id="13942"></path><path d="M514.1 912.9l-0.1-48c14.7 0 29.6-1 44.1-2.8l6 47.6c-16.4 2.1-33.3 3.2-50 3.2z m-50-3c-16.6-2.1-33.2-5.2-49.3-9.3l11.8-46.5c14.2 3.6 28.8 6.4 43.4 8.2l-5.9 47.6z m149.3-9.5l-12-46.5c14.2-3.7 28.3-8.2 41.9-13.7l17.7 44.6c-15.4 6.2-31.4 11.4-47.6 15.6zM367 885.1c-15.5-6.1-30.8-13.3-45.4-21.3l23.1-42.1c12.9 7.1 26.3 13.4 39.9 18.8L367 885.1z m339.5-21.7l-23.2-42c12.8-7.1 25.3-15.1 37.2-23.7l28.3 38.8c-13.5 9.8-27.7 18.9-42.3 26.9z m-427.3-26.5c-13.5-9.8-26.5-20.5-38.7-31.9l32.8-35c10.7 10 22.2 19.5 34 28.1l-28.1 38.8z m508.2-32.4l-32.9-35c10.7-10.1 20.9-20.9 30.2-32.2l37 30.6c-10.7 12.8-22.2 25.1-34.3 36.6z m-581.2-36c-10.7-12.8-20.6-26.5-29.6-40.5l40.5-25.8c7.9 12.4 16.6 24.4 26 35.6l-36.9 30.7z m645-41.2l-40.5-25.7c7.9-12.4 15-25.4 21.3-38.7l43.4 20.4c-7.2 15.1-15.3 29.9-24.2 44z m-698.8-43.2c-7.1-15.1-13.4-30.8-18.6-46.6l45.6-14.9c4.5 13.9 10 27.7 16.3 41l-43.3 20.5z m741.4-47.4l-45.7-14.8c4.5-13.9 8.2-28.3 10.9-42.7l47.2 8.9c-3.1 16.3-7.3 32.7-12.4 48.6z m-772.5-47.8c-3.1-16.3-5.2-33.1-6.3-49.8l47.9-3c0.9 14.7 2.8 29.4 5.6 43.8l-47.2 9z m791.1-50.6l-47.9-2.9c0.4-7.2 0.7-14.6 0.7-21.9 0-7.4-0.2-14.9-0.7-22.3l47.9-3c0.5 8.4 0.8 16.9 0.8 25.3 0 8.2-0.3 16.6-0.8 24.8z m-749.6-46.4l-47.9-2.9c1-16.7 3.1-33.4 6.1-49.8l47.2 8.9c-2.7 14.4-4.5 29.1-5.4 43.8zM859 447.4c-2.7-14.4-6.4-28.8-11-42.7l45.6-14.8c5.2 15.9 9.3 32.2 12.5 48.6l-47.1 8.9z m-679.9-42l-45.7-14.7c5.1-15.9 11.3-31.6 18.4-46.7l43.5 20.4c-6.3 13.2-11.7 27-16.2 41z m652.7-41.8c-6.2-13.2-13.4-26.2-21.3-38.6l40.5-25.8c9 14.1 17.1 28.8 24.2 43.9l-43.4 20.5z m-615.3-38L176 299.9c8.9-14.1 18.8-27.7 29.4-40.6l37 30.5c-9.3 11.4-18 23.4-25.9 35.8z m568-36.3c-9.4-11.3-19.5-22.1-30.2-32.2l32.9-35c12.2 11.4 23.7 23.7 34.3 36.5l-37 30.7z m-511.9-31.7l-32.9-34.9c12.1-11.4 25.1-22.2 38.6-32.1l28.3 38.8c-11.9 8.7-23.3 18.2-34 28.2zM720.3 229c-11.9-8.6-24.4-16.6-37.3-23.7l23.2-42c14.6 8 28.8 17.1 42.3 26.9L720.3 229z m-376.6-23.3l-23.2-42c14.6-8.1 29.8-15.3 45.3-21.5l17.8 44.6c-13.6 5.4-27 11.8-39.9 18.9z m299.4-19.2c-13.6-5.4-27.8-10-42-13.6l11.9-46.5c16.2 4.1 32.2 9.4 47.8 15.5l-17.7 44.6z m-217.6-13.4l-12-46.5c16.1-4.2 32.7-7.3 49.3-9.5l6.1 47.6c-14.7 1.9-29.2 4.7-43.4 8.4z m132.3-8.4c-14.5-1.8-29.3-2.7-44.1-2.7h-0.8l-0.2-48h0.9c16.7 0 33.5 1 50 3.1l-5.8 47.6z" p-id="13943"></path><path d="M513.7 1022c-68.6 0-135.3-13.5-198-40-60.6-25.6-115-62.3-161.7-109-46.7-46.7-83.4-101.1-109-161.7C18.5 648.6 5 582 5 513.3s13.5-135.3 40-198c25.6-60.6 62.3-115 109-161.7 46.7-46.7 101.1-83.4 161.7-109 62.7-26.5 129.3-40 198-40s135.3 13.5 198 40c60.6 25.6 115 62.3 161.7 109s83.4 101.1 109 161.7c26.5 62.7 40 129.3 40 198s-13.5 135.3-40 198c-25.6 60.6-62.3 115-109 161.7s-101.1 83.4-161.7 109c-62.8 26.6-129.4 40-198 40z m0-969.2c-254 0-460.6 206.6-460.6 460.6S259.7 974 513.7 974s460.6-206.6 460.6-460.6S767.7 52.8 513.7 52.8z" p-id="13944"></path><path d="M514.1 912.9l-0.1-48c14.7 0 29.6-1 44.1-2.8l6 47.6c-16.4 2.1-33.3 3.2-50 3.2z m-50-3c-16.6-2.1-33.2-5.2-49.3-9.3l11.8-46.5c14.2 3.6 28.8 6.4 43.4 8.2l-5.9 47.6z m149.3-9.5l-12-46.5c14.2-3.7 28.3-8.2 41.9-13.7l17.7 44.6c-15.4 6.2-31.4 11.4-47.6 15.6zM367 885.1c-15.5-6.1-30.8-13.3-45.4-21.3l23.1-42.1c12.9 7.1 26.3 13.4 39.9 18.8L367 885.1z m339.5-21.7l-23.2-42c12.8-7.1 25.3-15.1 37.2-23.7l28.3 38.8c-13.5 9.8-27.7 18.9-42.3 26.9z m-427.3-26.5c-13.5-9.8-26.5-20.5-38.7-31.9l32.8-35c10.7 10 22.2 19.5 34 28.1l-28.1 38.8z m508.2-32.4l-32.9-35c10.7-10.1 20.9-20.9 30.2-32.2l37 30.6c-10.7 12.8-22.2 25.1-34.3 36.6z m-581.2-36c-10.7-12.8-20.6-26.5-29.6-40.5l40.5-25.8c7.9 12.4 16.6 24.4 26 35.6l-36.9 30.7z m645-41.2l-40.5-25.7c7.9-12.4 15-25.4 21.3-38.7l43.4 20.4c-7.2 15.1-15.3 29.9-24.2 44z m-698.8-43.2c-7.1-15.1-13.4-30.8-18.6-46.6l45.6-14.9c4.5 13.9 10 27.7 16.3 41l-43.3 20.5z m741.4-47.4l-45.7-14.8c4.5-13.9 8.2-28.3 10.9-42.7l47.2 8.9c-3.1 16.3-7.3 32.7-12.4 48.6z m-772.5-47.8c-3.1-16.3-5.2-33.1-6.3-49.8l47.9-3c0.9 14.7 2.8 29.4 5.6 43.8l-47.2 9z m791.1-50.6l-47.9-2.9c0.4-7.2 0.7-14.6 0.7-21.9 0-7.4-0.2-14.9-0.7-22.3l47.9-3c0.5 8.4 0.8 16.9 0.8 25.3 0 8.2-0.3 16.6-0.8 24.8z m-749.6-46.4l-47.9-2.9c1-16.7 3.1-33.4 6.1-49.8l47.2 8.9c-2.7 14.4-4.5 29.1-5.4 43.8zM859 447.4c-2.7-14.4-6.4-28.8-11-42.7l45.6-14.8c5.2 15.9 9.3 32.2 12.5 48.6l-47.1 8.9z m-679.9-42l-45.7-14.7c5.1-15.9 11.3-31.6 18.4-46.7l43.5 20.4c-6.3 13.2-11.7 27-16.2 41z m652.7-41.8c-6.2-13.2-13.4-26.2-21.3-38.6l40.5-25.8c9 14.1 17.1 28.8 24.2 43.9l-43.4 20.5z m-615.3-38L176 299.9c8.9-14.1 18.8-27.7 29.4-40.6l37 30.5c-9.3 11.4-18 23.4-25.9 35.8z m568-36.3c-9.4-11.3-19.5-22.1-30.2-32.2l32.9-35c12.2 11.4 23.7 23.7 34.3 36.5l-37 30.7z m-511.9-31.7l-32.9-34.9c12.1-11.4 25.1-22.2 38.6-32.1l28.3 38.8c-11.9 8.7-23.3 18.2-34 28.2zM720.3 229c-11.9-8.6-24.4-16.6-37.3-23.7l23.2-42c14.6 8 28.8 17.1 42.3 26.9L720.3 229z m-376.6-23.3l-23.2-42c14.6-8.1 29.8-15.3 45.3-21.5l17.8 44.6c-13.6 5.4-27 11.8-39.9 18.9z m299.4-19.2c-13.6-5.4-27.8-10-42-13.6l11.9-46.5c16.2 4.1 32.2 9.4 47.8 15.5l-17.7 44.6z m-217.6-13.4l-12-46.5c16.1-4.2 32.7-7.3 49.3-9.5l6.1 47.6c-14.7 1.9-29.2 4.7-43.4 8.4z m132.3-8.4c-14.5-1.8-29.3-2.7-44.1-2.7h-0.8l-0.2-48h0.9c16.7 0 33.5 1 50 3.1l-5.8 47.6z" p-id="13945"></path><path d="M516.9 604.3c5.8-5.6 13.6-8.7 21.7-8.4v-8.6c-2-25.6 6.5-50.8 23.3-70.1 11.8-11.6 27.4-18.5 43.9-19.5 2.2-8.6 6.9-16.4 13.5-22.3 16.3-9 25.7-26.7 24.1-45.2 0-24.1-19.7-24.1-19.7-24.1l-7-38.9c-11.1-46.6-51.9-80-99.7-81.8h-14c-47.6 2.1-87.9 35.5-98.9 81.8-7 39.7-7 38.9-7 38.9s-19.7 0-19.7 24.1c-1.6 18.5 7.9 36.2 24.2 45.2 16.9 12.7 11.9 40.2 38.2 64.4 14 13 24.1 22.6 24.1 41s-9.9 22.6-19.7 28.3c-37.4 12.1-73.8 27.2-108.8 45.2-31.2 21.3-29.9 32.4-29.9 51.9 0 31.1 39.7 35.3 39.7 35.3H514c-4-5.1-6.3-11.4-6.2-17.9v-97.9c0-8.1 3.3-15.8 9.1-21.4z m199.5 9c-3.4-3.2-8-4.9-12.7-4.7h-14V587c0.9-21.5-6.1-42.6-19.7-59.2-12.2-12-28.8-18.3-46-17.4h-6.2c-15.2-0.2-29.8 5.6-40.8 16.1-14.5 16.9-21.6 38.9-19.7 61V609h-12.7c-4.7-0.2-9.3 1.5-12.7 4.7-3.4 3.2-5.4 7.7-5.5 12.4V724c0.1 4.7 2 9.2 5.5 12.4 3.4 3.2 8 4.9 12.7 4.7h159.2c4.7 0.2 9.3-1.5 12.7-4.7 3.4-3.2 5.4-7.7 5.5-12.4v-98.4c-0.2-4.6-2.1-9.1-5.6-12.3z m-58.1-4.7h-66.7V587c0-29.1 11.4-44.4 33-44.7 8.2-0.4 16.1 2.8 21.8 8.6 7.8 10.2 11.7 22.9 11.2 35.8l0.8 0.3v21.6z" p-id="13946"></path></svg>