<?xml version="1.0" standalone="no"?><!DOCTYPE svg PUBLIC "-//W3C//DTD SVG 1.1//EN" "http://www.w3.org/Graphics/SVG/1.1/DTD/svg11.dtd"><svg t="1750382022882" class="icon" viewBox="0 0 1024 1024" version="1.1" xmlns="http://www.w3.org/2000/svg" p-id="12580" xmlns:xlink="http://www.w3.org/1999/xlink" width="200" height="200"><path d="M192 787.2V172.8h512v185.6a321.12 321.12 0 0 1 64 20.48V134.4A35.68 35.68 0 0 0 736 96H160a35.68 35.68 0 0 0-32 38.4v691.2a35.68 35.68 0 0 0 32 38.4h224a320 320 0 0 1-42.88-76.8z" fill="#444444" p-id="12581"></path><path d="M640 416a256 256 0 1 0 256 256 256 256 0 0 0-256-256z m105.12 369.92l-18.24 18.08a3.04 3.04 0 0 1-4.48 0l-96-96a6.24 6.24 0 0 1-1.92-4.48v-160a3.2 3.2 0 0 1 3.2-3.2h25.6a3.2 3.2 0 0 1 3.2 3.2v150.08l89.12 89.12a3.36 3.36 0 0 1-0.48 3.2zM640 300.8v-57.6c0-1.76-3.36-3.2-7.68-3.2h-368c-4.32 0-7.68 1.44-7.68 3.2v57.6c0 1.76 3.36 3.2 7.68 3.2h368c4.32 0 7.68-1.44 7.68-3.2zM257.6 368c-0.96 0-1.6 1.44-1.6 3.2v57.6c0 1.76 0 3.2 1.6 3.2h188.8c0.96 0 1.6-1.44 1.6-3.2v-57.6c0-1.76 0-3.2-1.6-3.2z" p-id="12582"></path></svg>